:SAMPLES-PER-SECOND 30
:FULLY-SPECIFIED
:DEGREES
32
root  -41.6534 37.9271 -1.87068 46.0424 84.8563 44.1238
RightUpLeg  -12.2637 1.11206 -2.06934
RightLeg  55.941 -6.11997 -26.2167
RightFoot  38.5164 1.19849 -2.46228
RightToes  -1.74624e-010 -1.59028e-015 9.93923e-017
Spine  -3.07503 2.06505 0.972432
Spine1  12.9695 4.86604 -11.4334
HEad  -23.1453 -7.24475 6.98257
LeftShoulder1  9.93923e-017 0 1.22299e-017
LeftArm  -18.8008 36.0576 -70.1591
LeftForeArm  -8.08725 -2.67737 -4.02363
LeftHand  1.23483 9.60539 -5.32432
RightShoulder  1.98785e-016 -4.96962e-017 1.55301e-017
RightArm  6.05074 -27.8541 84.0433
RightForeArm  -17.9534 13.922 0.64488
RightHand  2.45972 -20.4646 -4.31227
LeftUpLeg  -26.0652 -0.650762 -7.81779
LeftLeg  24.5752 0.5365 4.99955
LeftFoot  -2.16896 -0.218666 2.1518
LeftToes  4.87492e-010 -9.21916e-011 1.24689e-011
33
root  -39.8913 38.3958 -2.00785 54.7176 86.3125 53.4333
RightUpLeg  -16.4574 1.98531 -0.584409
RightLeg  54.9608 -5.82873 -24.8282
RightFoot  34.5091 0.414883 -0.923017
RightToes  -1.74624e-010 -1.59028e-015 9.93923e-017
Spine  -2.47841 0.923883 0.163846
Spine1  11.9477 3.05777 -9.44472
HEad  -22.0995 -5.84466 7.04181
LeftShoulder1  9.93923e-017 0 1.22299e-017
LeftArm  -15.8893 30.1875 -74.0556
LeftForeArm  -9.31952 -6.52018 -4.08116
LeftHand  1.17747 8.76104 -3.8837
RightShoulder  1.98785e-016 -4.96962e-017 1.55301e-017
RightArm  13.0271 -33.3118 84.5293
RightForeArm  -23.4562 15.6791 -1.36296
RightHand  2.47418 -20.6989 -4.1767
LeftUpLeg  -21.3361 -1.9423 -7.31107
LeftLeg  22.8012 0.62738 4.50599
LeftFoot  -3.96622 -0.125687 1.39201
LeftToes  4.87492e-010 -9.21916e-011 1.24689e-011
34
root  -38.1459 38.7799 -2.12978 79.7428 87.6842 79.232
RightUpLeg  -19.7904 2.40554 0.740529
RightLeg  52.2877 -7.68166 -24.6597
RightFoot  28.2953 -0.329438 0.895196
RightToes  -1.74624e-010 -1.59028e-015 9.93923e-017
Spine  -2.10354 -0.484239 -1.13835
Spine1  11.4085 0.859019 -6.76462
HEad  -21.5081 -3.95648 6.77113
LeftShoulder1  9.93923e-017 0 1.22299e-017
LeftArm  -6.1784 24.6358 -77.1632
LeftForeArm  -17.0368 -12.9203 -1.97665
LeftHand  1.12529 8.24658 -3.5397
RightShoulder  1.98785e-016 -4.96962e-017 1.55301e-017
RightArm  20.7242 -38.3989 84.6202
RightForeArm  -29.933 17.4281 -4.22643
RightHand  2.47155 -20.6417 -4.21565
LeftUpLeg  -16.578 -3.76966 -6.67066
LeftLeg  21.0449 0.830077 4.11493
LeftFoot  -5.61337 -0.108263 1.35199
LeftToes  4.87492e-010 -9.21916e-011 1.24689e-011
35
root  -36.4128 38.9884 -2.20058 129.13 87.7022 129.199
RightUpLeg  -22.5284 2.4889 1.53425
RightLeg  48.2563 -11.9356 -25.6632
RightFoot  19.0547 -0.64538 2.2454
RightToes  -1.74624e-010 -1.59028e-015 9.93923e-017
Spine  -2.27597 -2.09081 -3.80261
Spine1  11.4888 -1.71948 -3.2311
HEad  -21.1387 -2.06283 6.15485
LeftShoulder1  9.93923e-017 0 1.22299e-017
LeftArm  9.99339 19.4062 -79.4973
LeftForeArm  -31.8196 -19.9499 4.4483
LeftHand  1.11348 8.18242 -3.99705
RightShoulder  1.98785e-016 -4.96962e-017 1.55301e-017
RightArm  27.705 -42.8622 84.0343
RightForeArm  -35.7159 18.6462 -7.14986
RightHand  2.40383 -20.2998 -4.04692
LeftUpLeg  -12.5887 -4.53507 -6.43839
LeftLeg  20.0574 -0.0942731 3.81915
LeftFoot  -7.46761 -0.084938 1.19347
LeftToes  4.87492e-010 -9.21916e-011 1.24689e-011
36
root  -34.6601 38.9813 -2.21778 154.089 85.8948 154.523
RightUpLeg  -24.7917 2.42437 1.47282
RightLeg  42.9143 -16.3815 -24.9664
RightFoot  9.20419 -0.531074 2.66236
RightToes  -1.74624e-010 -1.59028e-015 9.93923e-017
Spine  -2.74927 -3.78736 -7.57715
Spine1  11.8112 -4.37983 0.53141
HEad  -21.1037 -0.375603 5.69135
LeftShoulder1  9.93923e-017 0 1.22299e-017
LeftArm  24.6264 14.2741 -80.5909
LeftForeArm  -45.4188 -24.295 13.1062
LeftHand  1.11842 8.29888 -4.72644
RightShoulder  1.98785e-016 -4.96962e-017 1.55301e-017
RightArm  33.1158 -47.0113 82.9438
RightForeArm  -40.3748 19.3993 -9.97408
RightHand  2.38786 -20.1822 -4.0446
LeftUpLeg  -9.37997 -3.98 -6.57145
LeftLeg  20.2437 -2.51921 3.34596
LeftFoot  -9.8542 -0.0485824 0.622945
LeftToes  4.87492e-010 -9.21916e-011 1.24689e-011
37
root  -32.8535 38.8042 -2.22317 157.46 83.7136 158.221
RightUpLeg  -26.1643 1.73515 0.689304
RightLeg  35.4768 -17.7787 -20.1796
RightFoot  0.0789965 -0.230772 1.96546
RightToes  -1.74624e-010 -1.59028e-015 9.93923e-017
Spine  -3.36163 -5.42856 -11.3083
Spine1  12.2653 -6.72511 3.61327
HEad  -21.5129 1.04835 5.5816
LeftShoulder1  9.93923e-017 0 1.22299e-017
LeftArm  29.2699 8.72883 -80.2858
LeftForeArm  -48.1075 -26.8432 17.8304
LeftHand  1.10863 8.26362 -5.35974
RightShoulder  1.98785e-016 -4.96962e-017 1.55301e-017
RightArm  36.5832 -51.161 81.5173
RightForeArm  -44.0838 19.8294 -12.621
RightHand  2.45716 -20.3545 -4.4094
LeftUpLeg  -6.32353 -3.4878 -6.95826
LeftLeg  21.0967 -5.0775 2.94293
LeftFoot  -12.7049 -0.0378128 0.431114
LeftToes  4.87492e-010 -9.21916e-011 1.24689e-011
38
root  -30.9564 38.4998 -2.24063 156.928 81.5411 158.081
RightUpLeg  -26.1226 0.0374354 -0.468436
RightLeg  25.4032 -14.5629 -12.1626
RightFoot  -6.84883 -0.0537796 1.06299
RightToes  -1.74624e-010 -1.59028e-015 9.93923e-017
Spine  -4.38044 -6.87124 -14.3879
Spine1  13.0687 -8.55197 5.70771
HEad  -21.9276 1.87419 5.46828
LeftShoulder1  9.93923e-017 0 1.22299e-017
LeftArm  28.7056 2.77873 -79.3318
LeftForeArm  -45.0689 -29.507 18.7349
LeftHand  1.09537 8.13055 -5.44417
RightShoulder  1.98785e-016 -4.96962e-017 1.55301e-017
RightArm  37.6778 -55.3215 79.7159
RightForeArm  -45.9277 19.9852 -14.3425
RightHand  2.51878 -20.4337 -4.80744
LeftUpLeg  -2.97593 -3.04275 -7.43543
LeftLeg  21.9196 -7.25054 2.74077
LeftFoot  -16.0998 -0.0279487 0.787959
LeftToes  4.87492e-010 -9.21916e-011 1.24689e-011
